PathFileType	4	(X/Y/Z)	C:/Users/beibeiliu/ov580/test_trc/User3\sequence.21_training_dense_right.trc
DataRate	CameraRate	NumFrames	NumMarkers	Units	OrigDataRate	OrigDataStartFrame	OrigNumFrames
120	120	24	19	mm	120	67	265
Frame#	Time	ThumbCMC			ThumbMCP			ThumbIP			ThumbTip			IndexMCP			IndexPIP			IndexTip			MiddleMCP			MiddlePIP			MiddleTip			RingMCP			RingPIP			RingTip			PinkyMCP			PinkyPIP			PinkyTip			BackHand1			BackHand2			BackHand3	
		X0	Y0	Z0	X1	Y1	Z1	X2	Y2	Z2	X3	Y3	Z3	X4	Y4	Z4	X5	Y5	Z5	X6	Y6	Z6	X7	Y7	Z7	X8	Y8	Z8	X9	Y9	Z9	X10	Y10	Z10	X11	Y11	Z11	X12	Y12	Z12	X13	Y13	Z13	X14	Y14	Z14	X15	Y15	Z15	X16	Y16	Z16	X17	Y17	Z17	X18	Y18	Z18	
66	0.55	182.719	-36.3653	-35.5822	169.052	-34.099	-69.045	142.657	-49.3814	-82.5822	123.516	-61.4645	-91.1041	159.561	-79.5366	-100.043	136.433	-64.863	-115.527	134.631	-42.6919	-90.8546	139.772	-85.4693	-90.5873	118.03	-60.0768	-100.013	125.582	-45.2531	-64.5037	123.417	-89.8989	-79.1731	105.024	-67.5338	-80.8873	115.527	-52.265	-54.1941	117.611	-93.5555	-61.0036	99.932	-73.0834	-67.2471	107.581	-51.303	-41.9967	161.701	-98.0967	-29.6994	168.733	-87.9734	-4.83203	188.274	-70.8992	-31.5283	
67	0.558333	185.458	-42.5411	-32.0792	176.244	-44.8747	-68.5554	152.683	-60.8603	-81.5318	132.753	-71.4979	-78.4204	167.81	-84.9533	-97.2266	147.824	-70.7318	-112.339	146.892	-46.8464	-84.1518	154.785	-93.6401	-91.8275	131.078	-73.9677	-106.117	131.396	-54.9061	-72.4068	133.069	-96.4892	-79.1722	116.34	-72.1773	-86.868	123.677	-55.8319	-57.6282	120.252	-96.9495	-65.1685	107.753	-76.0162	-70.4505	114.787	-57.4492	-46.0154	163.264	-100.603	-25.9263	165.716	-90.441	0.510738	185.724	-79.3272	-22.6179	
68	0.566667	189.486	-47.9616	-39.3172	184.894	-53.4151	-73.6177	165.235	-66.1855	-87.9132	137.678	-81.5649	-86.4408	168.229	-95.7599	-94.2092	148.907	-73.492	-113.186	144.951	-57.8094	-86.6626	150.178	-101.593	-90.5666	129.112	-80.8484	-100.245	136.08	-60.9604	-64.497	133.895	-104.538	-73.4594	114.981	-84.3317	-81.4505	129.47	-60.5719	-57.7771	117.456	-104.015	-52.0239	107.285	-81.2275	-63.2025	129.555	-63.6667	-52.5986	161.91	-101.532	-19.5379	169.983	-84.9449	4.06695	190.768	-80.3036	-28.0399	
69	0.575	192.157	-44.5012	-41.6795	186.63	-52.2934	-72.9592	168.306	-73.706	-87.5179	146.922	-85.1387	-83.6423	179.16	-93.6907	-93.9586	160.528	-74.257	-109.084	162.875	-54.1737	-77.7799	159.572	-103.766	-84.7069	141.351	-78.5688	-97.4424	148.519	-59.2485	-62.6946	141.293	-103.911	-72.4924	127.8	-78.6524	-81.1907	144.972	-59.8723	-56.2413	133.671	-109.927	-56.14	119.595	-90.6368	-72.4702	126.548	-67.9657	-47.5469	170.436	-101.237	-17.1614	171.47	-83.8606	6.15682	193.232	-77.3615	-23.079	
70	0.583333	193.074	-42.2594	-40.6196	184.984	-54.6738	-77.5097	165.042	-71.8069	-92.3277	143.908	-85.7731	-78.9046	178.695	-92.1691	-99.1359	157.539	-73.3846	-109.069	163.281	-51.0602	-84.9102	159.702	-98.7185	-92.9937	140.296	-73.5398	-97.9227	147.987	-60.125	-61.8848	142.227	-100.545	-73.7225	131.663	-70.8414	-81.5677	148.813	-58.0312	-53.5619	132.162	-107.14	-62.4435	121.56	-88.1506	-73.3582	136.033	-65.8895	-56.0593	175.311	-100.107	-23.9062	176.048	-80.4813	3.32126	197.922	-77.5717	-26.3147	
71	0.591667	194.475	-34.4185	-41.7219	193.126	-40.432	-72.2244	182.716	-61.5807	-93.8899	162.165	-82.1768	-97.6727	188.268	-84.0309	-96.957	164.368	-64.9707	-110.362	164.092	-50.1691	-80.2566	173.025	-93.8295	-93.8893	149.698	-69.638	-100.953	152.99	-59.3203	-61.7961	154.768	-98.5687	-81.8022	137.644	-72.7544	-84.22	146.627	-58.7023	-60.4653	143.955	-102.395	-63.1107	132.684	-79.0214	-72.1374	143.26	-64.8005	-45.5068	179.428	-99.3657	-26.5662	178.542	-79.8146	1.92464	199.284	-68.4313	-25.8382	
72	0.6	192.275	-26.7155	-39.4619	192.265	-29.6065	-71.0625	186.592	-51.3234	-98.6571	170.154	-70.6139	-101.857	194.626	-74.9572	-97.6756	172.373	-58.3368	-114.864	165.015	-41.9445	-87.7434	181.161	-80.7638	-97.2069	154.414	-66.0466	-102.131	156.838	-49.9925	-63.4622	164.044	-91.9581	-80.8171	142.495	-68.29	-85.2823	153.925	-52.6513	-58.8313	149.746	-98.1769	-65.8856	136.314	-70.6778	-71.4051	149.264	-57.8666	-52.2326	187.882	-86.649	-28.4907	185.069	-73.3623	-3.48202	203.996	-55.9493	-23.9917	
73	0.608333	187.792	-15.4227	-32.3381	192.073	-14.4464	-64.7424	191.167	-32.9993	-92.7851	192.482	-37.0008	-116.143	201.873	-53.2598	-92.4705	175.905	-38.007	-108.983	170.385	-25.8231	-77.6138	186.161	-69.3412	-97.1607	161.214	-50.8128	-102.52	160.569	-42.3727	-63.2273	168.859	-77.8209	-86.6226	150.261	-56.9766	-88.8293	152.525	-45.7766	-56.3063	156.22	-84.6018	-76.3419	142.379	-61.3277	-71.3475	156.637	-52.1624	-45.164	193.416	-79.4465	-32.5645	180.963	-72.6127	-1.04429	203.739	-45.3706	-20.9323	
74	0.616667	182.868	-3.8579	-32.5622	185.83	-2.93692	-67.5271	189.117	-17.0952	-99.5112	188.201	-21.048	-117.698	201.449	-38.7981	-96.4499	173.104	-32.0651	-110.043	164.565	-19.8792	-78.1422	189.089	-56.399	-96.57	158.8	-46.096	-100.177	159.486	-34.923	-61.6228	177.012	-70.313	-83.6634	149.078	-51.9253	-85.5475	154.273	-36.9847	-58.8443	160.88	-80.1208	-70.4511	146.074	-55.4139	-72.7436	160.602	-41.0732	-50.8208	198.042	-65.8168	-27.7109	189.924	-58.2008	-2.3418	206.863	-32.9341	-26.4447	
75	0.625	167.379	12.642	-29.1509	170.419	20.3518	-63.9798	177.804	12.6547	-92.6909	180.917	1.90455	-111.241	194.487	-5.14989	-97.9809	165.608	-10.2019	-107.757	157.31	-14.8623	-74.384	190.081	-26.2584	-94.7114	158.429	-31.3017	-93.1407	158.76	-23.9508	-55.5776	190.277	-44.8516	-83.422	158.861	-44.87	-84.4398	157.886	-30.0619	-52.9909	187.98	-61.2886	-71.2901	159.777	-55.5461	-72.3269	159.136	-42.1837	-45.799	210.256	-35.7416	-32.0723	197.128	-29.0071	-0.393073	198.757	1.34025	-21.7025	
76	0.633333	154.803	15.0273	-19.2539	156.118	29.1658	-51.4103	167.689	27.0892	-83.8023	169.178	24.0016	-102.294	187.419	18.5667	-91.1762	159.593	9.07957	-101.765	152.336	2.36412	-69.6515	190.218	-4.15848	-91.1085	158.437	-11.6479	-94.0556	156.34	-11.5187	-52.096	189.05	-19.7903	-87.4843	162.21	-30.2816	-86.2087	157.959	-21.8131	-52.784	195.533	-39.8083	-78.1035	168.297	-41.0642	-81.0029	164.097	-28.8129	-54.0041	208.427	-18.1299	-29.8429	198.616	-23.2665	-4.21862	193.182	8.53928	-16.7337	
77	0.641667	150.75	14.9137	-13.8617	149.737	32.834	-40.661	153.867	40.713	-70.4722	160.427	37.2436	-94.1132	181.398	35.7871	-78.4151	155.297	23.6739	-99.7777	146.955	8.36761	-73.9812	188.773	14.538	-87.1321	161.924	-0.830274	-97.6514	159.59	-13.1822	-56.9988	190.32	-3.96773	-84.1926	164.152	-18.3486	-87.5443	158.093	-20.1639	-54.1372	197.631	-25.8059	-77.0977	169.838	-30.1644	-80.606	165.927	-26.7454	-52.3067	208.508	-3.71437	-28.3144	198.073	-20.0077	-1.35235	183.454	16.9649	-11.5128	
78	0.65	141.755	17.2603	-5.77338	140.13	34.794	-37.1924	147.039	39.7035	-65.6579	145.308	42.9483	-85.2757	169.638	47.8858	-70.5547	147.374	37.4273	-94.3598	136.542	17.9118	-66.8761	178.019	34.7796	-84.1794	155.045	13.039	-95.9989	154.192	-3.32703	-59.8052	186.668	10.2813	-85.3854	162.192	-5.70046	-89.6898	156.263	-11.4125	-56.5075	195.068	-7.23552	-78.3724	168.04	-17.436	-81.174	164.139	-12.2767	-50.6832	206.825	4.35803	-26.8302	200.81	-11.9983	-0.119871	181.409	23.2167	-6.12833	
79	0.658333	133.163	21.3736	-9.14232	130.243	38.5867	-35.1752	138.096	49.8809	-64.5505	138.998	57.1195	-84.707	162.915	53.1473	-69.9484	142.305	33.4055	-89.4743	143.824	13.0176	-61.9534	173.758	32.9568	-78.1415	151.713	8.45056	-84.0843	151.608	2.31402	-45.2615	187.903	19.7457	-78.8566	164.814	0.497508	-86.4823	157.005	-6.08206	-56.509	200.299	11.1359	-72.8342	181.718	-5.63357	-87.0097	168.288	-15.5631	-62.9568	202.017	15.6637	-19.6519	193.296	-0.193264	3.98109	171.902	29.0208	-3.30236	
80	0.666667	126.226	22.7537	-11.7742	123.406	40.5197	-36.8443	131.429	53.8511	-63.5211	148.365	53.0604	-82.4152	155.161	56.2142	-69.7825	145.263	30.7404	-89.3183	143.025	14.0818	-57.24	173.387	37.7297	-75.4427	154.464	13.0951	-83.4748	153.249	4.01446	-43.0362	188.13	23.9334	-71.2022	167.195	2.50254	-80.2324	158.934	-4.57721	-48.6015	199.997	9.6233	-67.9885	176.483	-5.86378	-74.1888	167.164	-6.35869	-45.599	191.708	25.53	-15.0536	184.993	6.46048	9.80449	161.417	30.7657	-2.51959	
81	0.675	126.092	6.72624	-3.81545	119	26.7242	-27.8395	116.988	43.6945	-54.2761	123.649	51.1234	-72.4551	141.444	59.8232	-58.997	127.824	41.5035	-83.9221	130.291	16.4948	-61.0568	158.451	46.4611	-68.7099	143.885	19.4072	-84.0284	152.075	0.989536	-48.7356	174.525	36.6478	-73.2723	158.482	13.0831	-83.5855	155.566	-2.44998	-55.342	190.285	19.8737	-70.938	169.858	1.25884	-74.9463	167.146	-7.42806	-46.4075	189.545	27.302	-15.2647	187.024	3.18799	5.94141	156.946	25.5947	2.59338	
82	0.683333	127.243	5.3242	-4.28411	115.411	21.6363	-29.0164	120.48	40.0255	-55.1878	124.594	50.5886	-77.7933	137.163	57.0614	-56.8806	129.908	36.9488	-82.9564	133.355	11.7049	-62.0348	160.261	44.9833	-71.1213	148.712	18.8199	-84.5186	147.71	1.17063	-48.2683	178.07	32.6895	-70.7669	163.311	12.5058	-84.0897	158.012	-5.60145	-52.0637	195.781	16.0618	-64.4448	170.88	2.15111	-75.2159	163.599	-6.48578	-49.7924	189.399	23.6385	-9.21097	187.454	3.19275	8.12037	155.459	23.3402	6.22435	
83	0.691667	125.685	-0.681799	-2.43741	111.933	21.5051	-28.74	116.2	29.7643	-53.5683	117.896	38.3749	-72.9873	130.789	55.6184	-59.1719	122.175	39.1025	-84.6581	125.929	11.6132	-68.2195	155.495	42.2428	-68.9417	142.852	16.9766	-88.128	139.553	-2.22642	-55.0984	170.659	32.8006	-73.5309	162.113	8.42921	-86.5356	154.354	-7.9084	-58.458	191.493	17.684	-70.0384	172.44	2.04494	-81.8141	159.212	-6.92101	-55.3068	184.614	28.2284	-16.1183	186.095	4.87577	6.25835	154.392	23.7075	2.04471	
84	0.7	127.478	-6.7287	-5.6211	111.395	7.77962	-28.9532	117.981	25.137	-58.158	117.282	34.8195	-78.0471	135.1	48.3119	-62.1307	127.277	34.0203	-86.9571	125.022	5.70311	-69.6587	151.029	43.2756	-73.1544	145.064	20.7451	-91.8892	149.412	-6.62436	-60.968	165.947	28.8148	-70.3185	159.798	2.12571	-84.5005	157.022	-14.4227	-57.0448	188.956	14.363	-68.608	170.828	-6.14936	-76.5723	162.826	-11.6273	-45.5108	183.01	22.8269	-12.4281	187.369	2.72401	5.38252	150.938	17.4954	1.13025	
85	0.708333	120.062	-11.3338	-5.93777	106.975	6.28177	-27.6486	115.507	20.2954	-55.8223	117.57	24.6542	-76.6099	133.205	40.8519	-65.2814	124.506	20.2024	-92.9044	131.968	-5.01212	-69.6662	153.282	31.3813	-75.6133	147.212	5.58804	-91.6287	152.606	-13.8679	-54.716	171.691	23.7595	-69.6547	165.939	-5.45052	-84.1857	163.205	-19.2078	-53.7731	190.011	12.9511	-63.4969	174.575	-10.2609	-74.5284	161.94	-14.0583	-44.6244	176.454	21.4372	-11.8079	181.91	1.19453	9.12881	143.814	14.3266	-0.967655	
86	0.716667	123.403	-12.3019	-8.75059	111.172	0.2505	-34.4105	118.067	10.4778	-63.3144	120.702	15.698	-82.8283	133.682	34.7718	-68.8604	121.968	13.2273	-96.049	123.622	-9.35865	-74.4746	148.884	25.5596	-78.0507	140.122	-3.36757	-94.2561	147.203	-20.8566	-60.2798	166.529	14.1171	-77.7124	157.888	-17.6805	-83.9553	160.655	-25.7807	-53.4479	185.313	0.868451	-76.4159	167.654	-20.6512	-75.2766	166.61	-21.9515	-44.9122	180.482	17.3632	-20.3777	185.136	0.94071	1.36897	152.92	10.2716	-4.09882	
87	0.725	127.216	-11.5805	-14.9813	110.934	-0.970386	-43.7415	114.229	5.435	-73.0831	121.188	6.03176	-90.1832	133.38	25.5076	-82.0434	125.664	0.0212956	-102.382	129.168	-18.5799	-76.5219	149.731	12.9797	-89.6599	146.017	-18.8552	-95.7407	149.507	-27.2527	-58.5997	172.225	-0.668338	-81.4198	159.275	-31.7749	-81.4011	158.279	-30.1427	-48.2843	185.645	-7.30346	-79.5246	174.513	-31.6607	-79.2571	165.465	-31.6233	-51.1421	181.024	15.4612	-29.1832	181.156	-0.927056	-0.0412131	148.231	12.4672	-8.75008	
88	0.733333	127.266	-19.1331	-17.0817	110.404	-12.3143	-39.7057	116.851	-7.57489	-70.0353	118.865	-5.50515	-91.9748	130.923	15.0113	-87.6434	126.854	-9.15757	-106.936	137.211	-30.0632	-80.8643	151.437	3.53443	-91.3535	152.565	-27.8704	-98.9626	154.989	-35.724	-60.4136	170.533	-13.514	-83.1547	164.645	-42.2862	-73.4611	164.649	-34.6195	-42.7368	184.958	-16.1317	-74.356	173.557	-39.4134	-63.6138	169.384	-25.7769	-39.2797	179.743	14.6368	-32.0245	183.208	-2.87188	-0.923743	147.919	5.03318	-12.7207	
89	0.741667	124.966	-24.3358	-13.5431	107.34	-17.6759	-40.879	117.373	-14.7058	-70.9195	126.106	-14.8236	-92.1591	131.311	2.442	-87.8175	129.684	-24.439	-105.22	138.342	-40.0698	-77.0394	154.691	-6.31992	-90.5204	157.963	-37.3758	-97.4643	158.366	-42.5727	-55.4755	171.37	-19.6096	-80.1173	167.993	-50.5599	-68.2664	166.997	-40.835	-38.9543	191.399	-23.801	-71.2092	180.869	-48.7525	-58.1224	175.127	-32.3922	-31.6873	181.711	9.07479	-33.6352	178.385	-0.421687	-1.86575	145.921	3.27542	-16.5937	
